# xmcd
#
# Track frame offsets: 
#        150
#        17655
#        29965
#        44917
#        58445
#        71410
#        84262
#        97155
#        110770
#        123187
#        134465
#        147572
#        162142
#        181215
#        195062
#        208670
#        221367
#        235187
#        250195
#        269330
#        282395
#        293935
#
# Disc length: 4094 seconds
#
# Revision: 5
# Processed by: cddbd v1.5.2PL0 Copyright (c) Steve Scherf et al.
# Submitted via: ExactAudioCopyFreeDBPlugin 1.0
#
DISCID=5a0ffc16
DTITLE=Various Artist - Hi Times:  The Hi Records R&B Years [The Righ
DTITLE=t Stuff box set]
DYEAR=1995
DGENRE=Soul
TTITLE0=Al Green - I Can't Get Next to You
TTITLE1=Al Green - Tired of Being Alone
TTITLE2=Al Green - Let's Stay Together
TTITLE3=George Jackson - Aretha, Sing One for Me
TTITLE4=Otis Clay - Trying to Live My Life Without You
TTITLE5=Otis Clay - I Didn't Know the Meaning of Pain
TTITLE6=David Duke - Gimme Some Lovin'
TTITLE7=Bobo Mr. Soul - Hitch-Hiking Back to Heartbreak
TTITLE8=Ace Cannon - Drunk
TTITLE9=Ann Peebles - (I Feel Like) Breaking Up Somebody's Home
TTITLE10=Ann Peebles - I'm Gonna Tear Your Playhouse Down
TTITLE11=Al Green - I'm Still in Love with You
TTITLE12=Al Green - Simply Beautiful
TTITLE13=Syl Johnson - Take Me to the River
TTITLE14=Syl Johnson - Anyway the Wind Blows
TTITLE15=Syl Johnson - We Did It
TTITLE16=Al Green - Call Me (Come Back Home)
TTITLE17=Al Green - You Ought to Be with Me
TTITLE18=Al Green - Here I Am (Come and Take Me)
TTITLE19=Quiet Elegance - You've Got My Mind Messed Up
TTITLE20=Ann Peebles - I Can't Stand the Rain
TTITLE21=Ann Peebles - Come to Mama
EXTD=
EXTT0=
EXTT1=
EXTT2=
EXTT3=
EXTT4=
EXTT5=
EXTT6=
EXTT7=
EXTT8=
EXTT9=
EXTT10=
EXTT11=
EXTT12=
EXTT13=
EXTT14=
EXTT15=
EXTT16=
EXTT17=
EXTT18=
EXTT19=
EXTT20=
EXTT21=
PLAYORDER=
